#!OML:ASF E:\motion texture\Top Level 1\Subject 1\Session 1\male.ASF
:FULLY-SPECIFIED
:DEGREES
299
root -8.18631 18.0311 5.04869 401.092 -86.1432 -396.791
lowerback 0.596351 1.55283 0.925763
upperback -1.25913 2.09287 1.82132
thorax -1.65912 1.03882 1.3051
lowerneck -13.9225 2.82368 -0.156381
upperneck 22.1916 1.89428 7.40503
head 9.19797 1.56997 2.77932
rclavicle 1.41013e-014 7.95139e-016
rhumerus -35.1994 -30.9323 -59.6991
rradius 16.0824
rwrist 25.4346
rhand -11.4741 -23.083
rfingers 7.12502
rthumb 14.5638 -52.5517
lclavicle 1.41013e-014 7.95139e-016
lhumerus -38.6915 27.2634 65.7163
lradius 20.1153
lwrist -38.055
lhand -15.1879 24.9165
lfingers 7.12502
lthumb 10.9836 54.6092
rfemur -27.5388 -12.5721 22.6893
rtibia 61.5925
rfoot -3.12145 -19.3522
rtoes 5.5289
lfemur -8.39343 -4.7395 -18.2512
ltibia 18.7109
lfoot -11.3075 1.06137
ltoes -3.33357
300
root -8.31534 18.0359 5.05262 398.78 -86.1461 -394.484
lowerback 0.653114 1.41016 0.779914
upperback -1.28629 1.90265 1.86784
thorax -1.72205 0.945906 1.43647
lowerneck -13.9581 2.65656 -0.294538
upperneck 22.3414 1.67028 7.43618
head 9.2642 1.45709 2.79239
rclavicle -2.24999e-014 -4.77083e-015
rhumerus -35.052 -30.5177 -60.0035
rradius 16.3009
rwrist 24.8251
rhand -11.3231 -22.9079
rfingers 7.12502
rthumb 14.7092 -52.366
lclavicle -2.24999e-014 -4.77083e-015
lhumerus -37.6158 26.9444 65.8602
lradius 21.1044
lwrist -35.5905
lhand -15.7353 25.3949
lfingers 7.12502
lthumb 10.4555 55.1149
rfemur -28.3654 -12.5999 22.6149
rtibia 60.5002
rfoot -4.05546 -19.4747
rtoes 5.14537
lfemur -7.60358 -4.90345 -18.4719
ltibia 18.1751
lfoot -11.4799 1.16517
ltoes -3.4579
301
root -8.44344 18.0388 5.05585 396.582 -86.1537 -392.279
lowerback 0.706972 1.26626 0.624374
upperback -1.31139 1.71039 1.91857
thorax -1.78037 0.85226 1.5783
lowerneck -13.9878 2.48708 -0.445289
upperneck 22.4721 1.44296 7.48485
head 9.32304 1.3432 2.81242
rclavicle -1.32192e-014 -7.95139e-015
rhumerus -34.837 -29.9705 -60.3979
rradius 16.579
rwrist 24.0769
rhand -11.1725 -22.7706
rfingers 7.12502
rthumb 14.8543 -52.2181
lclavicle -1.32192e-014 -7.95139e-015
lhumerus -36.5405 26.5365 66.0386
lradius 22.1313
lwrist -32.8651
lhand -16.1042 25.6412
lfingers 7.12502
lthumb 10.0997 55.3789
rfemur -29.1511 -12.5974 22.5339
rtibia 59.2602
rfoot -4.87103 -19.7368
rtoes 4.9269
lfemur -6.84477 -5.05497 -18.6892
ltibia 17.6662
lfoot -11.6711 1.27361
ltoes -3.62613
302
root -8.57073 18.0399 5.05845 394.482 -86.1694 -390.158
lowerback 0.756147 1.12288 0.463179
upperback -1.33518 1.51843 1.96898
thorax -1.83353 0.758977 1.72361
lowerneck -14.0219 2.3146 -0.619633
upperneck 22.5946 1.20839 7.56951
head 9.38029 1.22777 2.84783
rclavicle -1.50331e-014 5.56597e-015
rhumerus -34.5713 -29.3142 -60.8658
rradius 16.9127
rwrist 23.2087
rhand -11.0353 -22.6668
rfingers 7.12502
rthumb 14.9864 -52.1045
lclavicle -1.50331e-014 5.56597e-015
lhumerus -35.4685 26.0537 66.2288
lradius 23.1837
lwrist -29.9076
lhand -16.3029 25.6692
lfingers 7.12502
lthumb 9.90792 55.4161
rfemur -29.8949 -12.5618 22.4434
rtibia 57.8756
rfoot -5.56742 -20.1156
rtoes 4.79959
lfemur -6.12 -5.19828 -18.9064
ltibia 17.1869
lfoot -11.8817 1.39472
ltoes -3.87859
303
root -8.69738 18.039 5.06042 392.463 -86.1942 -388.105
lowerback 0.799524 0.981379 0.295666
upperback -1.35988 1.32857 2.01852
thorax -1.88318 0.666956 1.87211
lowerneck -14.0404 2.14027 -0.801069
upperneck 22.7016 0.967838 7.67718
head 9.43007 1.1109 2.89092
rclavicle -1.05853e-014 4.77083e-015
rhumerus -34.276 -28.5799 -61.3793
rradius 17.2943
rwrist 22.2609
rhand -10.9175 -22.5903
rfingers 7.12502
rthumb 15.1 -52.0195
lclavicle -1.05853e-014 4.77083e-015
lhumerus -34.4202 25.5296 66.3988
lradius 24.2518
lwrist -26.8123
lhand -16.3542 25.5036
lfingers 7.12502
lthumb 9.85847 55.2528
rfemur -30.592 -12.4849 22.3398
rtibia 56.3475
rfoot -6.16451 -20.5772
rtoes 4.78507
lfemur -5.42993 -5.32822 -19.1229
ltibia 16.7409
lfoot -12.0962 1.52111
ltoes -4.17923
304
root -8.82357 18.0363 5.0619 390.548 -86.2292 -386.14
lowerback 0.832044 0.843572 0.127041
upperback -1.38325 1.14323 2.06583
thorax -1.92411 0.57729 2.01944
lowerneck -14.0412 1.96198 -0.981595
upperneck 22.7883 0.719307 7.79751
head 9.47066 0.991164 2.93639
rclavicle 1.6934e-014 -6.36111e-015
rhumerus -33.9578 -27.7984 -61.921
rradius 17.7134
rwrist 21.2711
rhand -10.8316 -22.5335
rfingers 7.12502
rthumb 15.1827 -51.9564
lclavicle 1.6934e-014 -6.36111e-015
lhumerus -33.3858 24.9971 66.5339
lradius 25.3151
lwrist -23.65
lhand -16.2813 25.1529
lfingers 7.12502
lthumb 9.92876 54.8987
rfemur -31.2415 -12.3618 22.2221
rtibia 54.6788
rfoot -6.68366 -21.0908
rtoes 4.83199
lfemur -4.7777 -5.44413 -19.3364
ltibia 16.3305
lfoot -12.31 1.65015
ltoes -4.48644
